<?xml version="1.0" standalone="no"?>
<!DOCTYPE svg PUBLIC "-//W3C//DTD SVG 20010904//EN" "http://www.w3.org/TR/2001/REC-SVG-20010904/DTD/svg10.dtd">
<svg xmlns="http://www.w3.org/2000/svg" version="1.0" width="1024.000000pt" height="1024.000000pt" viewBox="0 0 1024.000000 1024.000000" preserveAspectRatio="xMidYMid meet">
<metadata>
Created by potrace 1.16, written by Peter Selinger 2001-2019
<meta name="Producer" content="Online-Convert"/></metadata>
<g transform="translate(0.000000,1024.000000) scale(0.100000,-0.100000)" fill="#000000" stroke="none">
<path d="M0 5120 l0 -5120 5120 0 5120 0 0 5120 0 5120 -5120 0 -5120 0 0 -5120z m4310 2025 l0 -375 -540 0 -540 0 0 -555 0 -555 414 0 414 0 4 -67 c1 -38 2 -204 0 -371 l-3 -303 -422 2 -422 2 0 -1047 0 -1048 -390 1 -390 1 -3 2345 -2 2345 940 0 940 0 0 -375z m1360 338 c63 -223 139 -527 311 -1253 71 -300 159 -660 282 -1153 27 -112 44 -162 49 -150 4 10 43 160 87 333 44 173 141 554 216 845 131 515 155 607 270 1050 30 116 62 244 72 285 l18 75 478 3 477 2 0 -2347 0 -2348 -340 0 -340 0 0 35 c0 1249 -7 3163 -11 3143 -4 -16 -14 -64 -24 -108 -9 -44 -38 -168 -65 -275 -81 -326 -322 -1162 -541 -1879 -33 -106 -74 -250 -91 -320 -17 -69 -37 -132 -44 -139 -20 -20 -354 -13 -365 8 -4 8 -45 146 -90 305 -45 160 -121 424 -170 588 -49 164 -107 367 -130 450 -22 84 -51 188 -64 232 -21 69 -121 457 -258 1000 -22 88 -44 164 -48 170 -5 5 -9 -714 -9 -1600 l0 -1610 -330 0 -330 0 -1 1165 c0 641 0 1692 0 2335 1 644 1 1176 1 1183 0 9 104 12 490 12 l489 0 11 -37z"/>
</g>
</svg>
